<?xml version="1.0" standalone="no"?>
<!DOCTYPE svg PUBLIC "-//W3C//DTD SVG 20010904//EN"
 "http://www.w3.org/TR/2001/REC-SVG-20010904/DTD/svg10.dtd">
<svg version="1.0" xmlns="http://www.w3.org/2000/svg"
 width="500.000000pt" height="500.000000pt" viewBox="0 0 500.000000 500.000000"
 preserveAspectRatio="xMidYMid meet">
<metadata>
Created by potrace 1.14, written by Peter Selinger 2001-2017
</metadata>
<g transform="translate(0.000000,500.000000) scale(0.100000,-0.100000)"
fill="#000000" stroke="none">
<path d="M0 2500 l0 -2500 2500 0 2500 0 0 2500 0 2500 -2500 0 -2500 0 0
-2500z m1770 -25 l0 -975 251 0 250 0 -3 -47 -3 -48 -542 -3 -543 -2 0 50 0
50 245 0 245 0 0 920 0 921 -245 -126 -245 -127 0 56 0 55 243 125 c219 113
247 126 295 126 l52 0 0 -975z m1768 952 c115 -44 220 -150 259 -260 17 -48
18 -99 18 -742 l0 -690 -22 -55 c-48 -117 -160 -220 -276 -255 -73 -22 -282
-30 -391 -16 -117 16 -185 48 -262 125 -70 70 -108 144 -123 237 -15 90 -15
1261 0 1331 34 163 164 297 326 337 21 6 126 9 233 7 152 -2 204 -6 238 -19z"/>
<path d="M3040 3328 c-56 -22 -143 -99 -155 -138 -5 -16 95 -185 412 -701
l418 -681 8 39 c4 21 7 308 5 638 -3 598 -3 600 -26 656 -30 76 -90 142 -160
176 -56 27 -61 28 -252 30 -179 3 -200 1 -250 -19z"/>
<path d="M2835 3029 c-3 -8 -4 -298 -3 -644 l3 -630 26 -56 c33 -69 89 -127
155 -160 46 -22 61 -24 242 -27 240 -4 269 3 354 89 32 31 58 65 58 75 0 9
-181 312 -402 673 -470 768 -426 699 -433 680z"/>
</g>
</svg>
